<svg width="230" height="74" viewBox="0 0 230 74" fill="none" xmlns="http://www.w3.org/2000/svg">
<path d="M23.5428 35.8203L32.1483 27.2248L36.4489 31.5253C37.6279 32.7044 38.2091 34.2645 38.2091 35.8259C38.2091 37.386 37.6279 38.9473 36.4489 40.1264C35.2698 41.3054 33.7096 41.8866 32.1483 41.8866C30.5881 41.8866 29.028 41.3054 27.8478 40.1264L23.5428 35.8203ZM32.1483 50.7777C28.3201 50.7777 24.4729 49.3264 21.5704 46.4049L17.2609 42.0955L21.2125 38.1484L25.5264 42.4667C27.3411 44.2813 29.7536 45.1881 32.1494 45.1881C34.5631 45.1881 36.9578 44.2813 38.7903 42.4667C40.6049 40.6342 41.5117 38.2395 41.5117 35.8259C41.5117 33.4311 40.6038 31.0175 38.7903 29.2028L33.3107 23.741L32.1494 22.562L30.9882 23.741L21.2203 33.4978L17.2698 29.5473L32.1483 14.6688L42.7274 25.2479C45.6489 28.1516 47.1002 31.9976 47.1002 35.827C47.1002 39.6741 45.6489 43.5024 42.7274 46.406V46.4238C39.8237 49.3253 35.9766 50.7777 32.1483 50.7777ZM45.5578 48.2374C48.7871 44.7536 50.4028 40.2897 50.4028 35.8259C50.4028 31.1442 48.6248 26.4625 45.0677 22.9065L33.3096 11.1661L32.1483 10.0049L30.9871 11.1661L13.7672 28.386L12.6059 29.5473L13.7672 30.7086L18.8867 35.8281L14.9384 39.773L12.5981 42.1133L19.2301 48.7452C22.7861 52.3012 27.4678 54.0792 32.1494 54.0803C36.8311 54.0803 41.5117 52.3023 45.0688 48.7452L45.5589 48.2552V48.2374H45.5578Z" fill="#E6007E"/>
<path d="M213.578 20.8433H202.223V24.1867H206.018V43.7832H209.78V24.1867H213.575V20.8433H213.578ZM190.451 43.7799V28.8726L195.414 43.7832H198.981V20.8433H195.543V35.0307L190.775 20.8433H187.013V43.7799H190.451ZM182.339 20.8433H178.576V43.7799H182.339V20.8433ZM166.284 24.1867H168.262C169.494 24.1867 170.339 24.6439 170.339 26.2848V29.2682C170.339 30.9058 169.494 31.3663 168.262 31.3663H166.284V24.1867ZM174.878 43.7799L171.636 34.0482C173.193 33.3607 174.101 31.9825 174.101 29.7871V25.6946C174.101 22.2215 171.831 20.8433 168.393 20.8433H162.522V43.7799H166.284V34.6384H168.165L171.051 43.7799H174.878ZM155.058 29.4628C155.058 31.1004 154.213 31.5609 152.981 31.5609H151.003V24.1867H152.981C154.213 24.1867 155.058 24.6439 155.058 26.2848V29.4628ZM153.112 20.8433H147.241V43.7799H151.003V34.901H153.112C156.551 34.901 158.823 33.5261 158.823 30.053V25.6946C158.823 22.2215 156.551 20.8433 153.112 20.8433ZM136.666 29.0347V25.299C136.666 21.8907 134.201 20.5806 131.087 20.5806H131.022C127.908 20.5806 125.443 21.8907 125.443 25.299V28.3148C125.443 30.708 126.708 31.7555 128.913 33.0331L131.539 34.5411C132.676 35.1637 133.032 35.7539 133.032 36.9343V38.7373C133.032 40.1447 132.22 40.7673 131.087 40.7673C129.95 40.7673 129.141 40.1447 129.141 38.7373V35.261H125.443V39.2594C125.443 42.8298 127.616 44.0426 131.055 44.0426H131.119C134.557 44.0426 136.73 42.7973 136.73 39.2594V35.9485C136.73 33.4904 135.433 32.4754 133.26 31.2301L130.599 29.7222C129.53 29.0996 129.138 28.5742 129.138 27.3938V25.8243C129.138 24.3812 129.95 23.8591 131.051 23.8591C132.156 23.8591 132.965 24.3845 132.965 25.8243V29.0347H136.666ZM118.435 29.4628C118.435 31.1004 117.591 31.5609 116.358 31.5609H114.38V24.1867H116.358C117.591 24.1867 118.435 24.6439 118.435 26.2848V29.4628ZM116.49 20.8433H110.618V43.7799H114.38V34.901H116.49C119.928 34.901 122.201 33.5261 122.201 30.053V25.6946C122.201 22.2215 119.928 20.8433 116.49 20.8433ZM98.2905 38.6043V26.0221C98.2905 24.3845 99.1348 23.924 100.368 23.924C101.6 23.924 102.445 24.3845 102.445 26.0221V38.6043C102.445 40.242 101.6 40.7025 100.368 40.7025C99.1348 40.7025 98.2905 40.242 98.2905 38.6043ZM94.5281 25.4319V39.1945C94.5281 42.6676 96.7977 44.0426 100.236 44.0426H100.496C103.934 44.0426 106.204 42.6676 106.204 39.1945V25.4319C106.204 21.9588 103.934 20.5806 100.496 20.5806H100.236C96.801 20.5806 94.5281 21.9264 94.5281 25.4319ZM82.6886 24.1867H84.6661C85.8989 24.1867 86.7432 24.6439 86.7432 26.2848V29.2682C86.7432 30.9058 85.8989 31.3663 84.6661 31.3663H82.6886V24.1867ZM91.2857 43.7799L88.0401 34.0482C89.5971 33.3607 90.5056 31.9825 90.5056 29.7871V25.6946C90.5056 22.2215 88.236 20.8433 84.7945 20.8433H78.9262V43.7799H82.6886V34.6384H84.5698L87.4559 43.7799H91.2857ZM70.7528 26.2848V38.3417C70.7528 39.9793 69.9085 40.4398 68.6758 40.4398H66.7624V24.1867H68.6758C69.9085 24.1867 70.7528 24.6439 70.7528 26.2848ZM68.8042 20.8433H63V43.7799H68.8074C72.2456 43.7799 74.5152 42.405 74.5152 38.9286V25.6946C74.5152 22.2215 72.2424 20.8433 68.8042 20.8433Z" fill="white"/>
<path d="M198.22 57.0302H198.869V53.9397H200.028V53.3398H197.061V53.9397H198.22V57.0302ZM193.286 57.095C193.97 57.095 194.387 56.8421 194.769 56.4432L194.355 56.0216C194.04 56.3167 193.755 56.4951 193.305 56.4951C192.605 56.4951 192.098 55.9081 192.098 55.185V55.1753C192.098 54.4521 192.609 53.8716 193.305 53.8716C193.723 53.8716 194.037 54.0565 194.329 54.3321L194.743 53.8522C194.393 53.5149 193.986 53.2782 193.312 53.2782C192.204 53.2782 191.427 54.1376 191.427 55.1882V55.198C191.427 56.2551 192.22 57.095 193.286 57.095ZM186.21 57.0302H188.946V56.4497H186.853V55.4574H188.686V54.8769H186.853V53.917H188.92V53.3366H186.21V57.0302ZM181.097 57.0302H183.658V56.44H181.735V53.3366H181.093V57.0302H181.097ZM175.986 57.0302H178.551V56.44H176.628V53.3366H175.986V57.0302ZM171.421 56.4919C170.695 56.4919 170.178 55.9017 170.178 55.1817V55.172C170.178 54.4553 170.686 53.8684 171.411 53.8684C172.137 53.8684 172.654 54.4651 172.654 55.1817V55.1915C172.654 55.9114 172.146 56.4919 171.421 56.4919ZM171.411 57.095C172.535 57.095 173.328 56.2259 173.328 55.185V55.1753C173.328 54.1343 172.544 53.2782 171.421 53.2782C170.297 53.2782 169.504 54.1473 169.504 55.1882V55.198C169.504 56.2357 170.288 57.095 171.411 57.095ZM165.732 57.095C166.416 57.095 166.833 56.8421 167.215 56.4432L166.801 56.0216C166.487 56.3167 166.201 56.4951 165.751 56.4951C165.052 56.4951 164.544 55.9081 164.544 55.185V55.1753C164.544 54.4521 165.055 53.8716 165.751 53.8716C166.169 53.8716 166.483 54.0565 166.776 54.3321L167.19 53.8522C166.84 53.5149 166.432 53.2782 165.758 53.2782C164.65 53.2782 163.873 54.1376 163.873 55.1882V55.198C163.873 56.2551 164.67 57.095 165.732 57.095ZM156.962 55.9179C157.363 55.9179 157.697 55.5903 157.697 55.1785V55.1688C157.697 54.7569 157.357 54.4262 156.962 54.4262C156.56 54.4262 156.22 54.7569 156.22 55.1688V55.1785C156.22 55.5903 156.554 55.9179 156.962 55.9179ZM146.288 57.0302H146.92V54.3937L148.063 56.1222H148.085L149.241 54.3808V57.0269H149.883V53.3366H149.199L148.085 55.0812L146.971 53.3366H146.288V57.0302ZM141.273 55.1688V53.9268H142.207C142.682 53.9268 142.965 54.144 142.965 54.5397V54.5494C142.965 54.9256 142.673 55.1655 142.214 55.1655H141.273V55.1688ZM140.631 57.0302H141.273V55.7428H142.079L142.978 57.0302H143.739L142.753 55.6325C143.26 55.4866 143.62 55.1201 143.62 54.5137V54.504C143.62 54.183 143.511 53.9073 143.318 53.7063C143.084 53.4728 142.724 53.3366 142.262 53.3366H140.634V57.0302H140.631ZM137.132 57.0302H137.774V53.3398H137.132V57.0302ZM131.79 57.0302H132.432V55.5255H134.275V54.9353H132.432V53.9268H134.509V53.3366H131.79V57.0302ZM125.784 57.0302H126.416V54.4035L128.432 57.0302H128.968V53.3398H128.336V55.8919L126.377 53.3398H125.784V57.0302ZM121.222 56.4919C120.496 56.4919 119.979 55.9017 119.979 55.1817V55.172C119.979 54.4553 120.487 53.8684 121.212 53.8684C121.938 53.8684 122.454 54.4651 122.454 55.1817V55.1915C122.454 55.9114 121.947 56.4919 121.222 56.4919ZM121.209 57.095C122.332 57.095 123.125 56.2259 123.125 55.185V55.1753C123.125 54.1343 122.342 53.2782 121.219 53.2782C120.095 53.2782 119.302 54.1473 119.302 55.1882V55.198C119.305 56.2357 120.088 57.095 121.209 57.095ZM115.533 57.095C116.217 57.095 116.634 56.8421 117.016 56.4432L116.602 56.0216C116.288 56.3167 116.002 56.4951 115.552 56.4951C114.853 56.4951 114.345 55.9081 114.345 55.185V55.1753C114.345 54.4521 114.856 53.8716 115.552 53.8716C115.97 53.8716 116.284 54.0565 116.576 54.3321L116.991 53.8522C116.641 53.5149 116.233 53.2782 115.559 53.2782C114.451 53.2782 113.674 54.1376 113.674 55.1882V55.198C113.674 56.2551 114.467 57.095 115.533 57.095ZM106.759 55.9179C107.161 55.9179 107.495 55.5903 107.495 55.1785V55.1688C107.495 54.7569 107.154 54.4262 106.759 54.4262C106.358 54.4262 106.018 54.7569 106.018 55.1688V55.1785C106.018 55.5903 106.355 55.9179 106.759 55.9179ZM96.8301 57.0302H97.4721V55.96L98.0403 55.3698L99.2891 57.0302H100.072L98.4802 54.9256L100.005 53.3366H99.2121L97.4721 55.1915V53.3366H96.8301V57.0302ZM92.7916 57.095C93.4753 57.095 93.8927 56.8421 94.2747 56.4432L93.8606 56.0216C93.546 56.3167 93.2603 56.4951 92.8108 56.4951C92.111 56.4951 91.6037 55.9081 91.6037 55.185V55.1753C91.6037 54.4521 92.1142 53.8716 92.8108 53.8716C93.2281 53.8716 93.5428 54.0565 93.8349 54.3321L94.249 53.8522C93.8991 53.5149 93.4914 53.2782 92.8172 53.2782C91.7097 53.2782 90.9328 54.1376 90.9328 55.1882V55.198C90.9328 56.2551 91.7257 57.095 92.7916 57.095ZM87.5973 57.0302H88.2394V53.3398H87.5973V57.0302ZM82.4481 57.0302H85.0131V56.44H83.0901V53.3366H82.4481V57.0302ZM78.4095 57.095C79.0933 57.095 79.5107 56.8421 79.8927 56.4432L79.4818 56.0216C79.1672 56.3167 78.8814 56.4951 78.432 56.4951C77.7322 56.4951 77.2249 55.9081 77.2249 55.185V55.1753C77.2249 54.4521 77.7354 53.8716 78.432 53.8716C78.8493 53.8716 79.1639 54.0565 79.4561 54.3321L79.867 53.8522C79.5171 53.5149 79.1094 53.2782 78.4352 53.2782C77.3277 53.2782 76.5508 54.1376 76.5508 55.1882V55.198C76.5508 56.2551 77.3437 57.095 78.4095 57.095Z" fill="white"/>
</svg>
